<svg width="98" height="64" viewBox="0 0 98 64" fill="none" xmlns="http://www.w3.org/2000/svg">
<path d="M39 24H37V23C37 22.7348 36.8946 22.4804 36.7071 22.2929C36.5196 22.1054 36.2652 22 36 22C35.7348 22 35.4804 22.1054 35.2929 22.2929C35.1054 22.4804 35 22.7348 35 23V24H29V23C29 22.7348 28.8946 22.4804 28.7071 22.2929C28.5196 22.1054 28.2652 22 28 22C27.7348 22 27.4804 22.1054 27.2929 22.2929C27.1054 22.4804 27 22.7348 27 23V24H25C24.2044 24 23.4413 24.3161 22.8787 24.8787C22.3161 25.4413 22 26.2044 22 27V39C22 39.7956 22.3161 40.5587 22.8787 41.1213C23.4413 41.6839 24.2044 42 25 42H39C39.7956 42 40.5587 41.6839 41.1213 41.1213C41.6839 40.5587 42 39.7956 42 39V27C42 26.2044 41.6839 25.4413 41.1213 24.8787C40.5587 24.3161 39.7956 24 39 24ZM40 39C40 39.2652 39.8946 39.5196 39.7071 39.7071C39.5196 39.8946 39.2652 40 39 40H25C24.7348 40 24.4804 39.8946 24.2929 39.7071C24.1054 39.5196 24 39.2652 24 39V32H40V39ZM40 30H24V27C24 26.7348 24.1054 26.4804 24.2929 26.2929C24.4804 26.1054 24.7348 26 25 26H27V27C27 27.2652 27.1054 27.5196 27.2929 27.7071C27.4804 27.8946 27.7348 28 28 28C28.2652 28 28.5196 27.8946 28.7071 27.7071C28.8946 27.5196 29 27.2652 29 27V26H35V27C35 27.2652 35.1054 27.5196 35.2929 27.7071C35.4804 27.8946 35.7348 28 36 28C36.2652 28 36.5196 27.8946 36.7071 27.7071C36.8946 27.5196 37 27.2652 37 27V26H39C39.2652 26 39.5196 26.1054 39.7071 26.2929C39.8946 26.4804 40 26.7348 40 27V30Z" fill="#959596"/>
<path d="M73 24H71V23C71 22.7348 70.8946 22.4804 70.7071 22.2929C70.5196 22.1054 70.2652 22 70 22C69.7348 22 69.4804 22.1054 69.2929 22.2929C69.1054 22.4804 69 22.7348 69 23V24H63V23C63 22.7348 62.8946 22.4804 62.7071 22.2929C62.5196 22.1054 62.2652 22 62 22C61.7348 22 61.4804 22.1054 61.2929 22.2929C61.1054 22.4804 61 22.7348 61 23V24H59C58.2044 24 57.4413 24.3161 56.8787 24.8787C56.3161 25.4413 56 26.2044 56 27V39C56 39.7956 56.3161 40.5587 56.8787 41.1213C57.4413 41.6839 58.2044 42 59 42H73C73.7956 42 74.5587 41.6839 75.1213 41.1213C75.6839 40.5587 76 39.7956 76 39V27C76 26.2044 75.6839 25.4413 75.1213 24.8787C74.5587 24.3161 73.7956 24 73 24ZM74 39C74 39.2652 73.8946 39.5196 73.7071 39.7071C73.5196 39.8946 73.2652 40 73 40H59C58.7348 40 58.4804 39.8946 58.2929 39.7071C58.1054 39.5196 58 39.2652 58 39V32H74V39ZM74 30H58V27C58 26.7348 58.1054 26.4804 58.2929 26.2929C58.4804 26.1054 58.7348 26 59 26H61V27C61 27.2652 61.1054 27.5196 61.2929 27.7071C61.4804 27.8946 61.7348 28 62 28C62.2652 28 62.5196 27.8946 62.7071 27.7071C62.8946 27.5196 63 27.2652 63 27V26H69V27C69 27.2652 69.1054 27.5196 69.2929 27.7071C69.4804 27.8946 69.7348 28 70 28C70.2652 28 70.5196 27.8946 70.7071 27.7071C70.8946 27.5196 71 27.2652 71 27V26H73C73.2652 26 73.5196 26.1054 73.7071 26.2929C73.8946 26.4804 74 26.7348 74 27V30Z" fill="white"/>
<rect x="0.5" y="0.5" width="97" height="63" rx="4.5" stroke="#9747FF" stroke-dasharray="10 5"/>
</svg>
