<svg width="95" height="64" viewBox="0 0 95 64" fill="none" xmlns="http://www.w3.org/2000/svg">
<g clip-path="url(#clip0_53_2346)">
<path d="M55 23H71C71.2652 23 71.5196 23.1054 71.7071 23.2929C71.8946 23.4804 72 23.7348 72 24V40C72 40.2652 71.8946 40.5196 71.7071 40.7071C71.5196 40.8946 71.2652 41 71 41H55C54.7348 41 54.4804 40.8946 54.2929 40.7071C54.1054 40.5196 54 40.2652 54 40V24C54 23.7348 54.1054 23.4804 54.2929 23.2929C54.4804 23.1054 54.7348 23 55 23ZM56 25V39H70V25H56ZM62.003 36L57.76 31.757L59.174 30.343L62.003 33.172L67.659 27.515L69.074 28.929L62.003 36Z" fill="white"/>
</g>
<g clip-path="url(#clip1_53_2346)">
<path d="M24 23H40C40.2652 23 40.5196 23.1054 40.7071 23.2929C40.8946 23.4804 41 23.7348 41 24V40C41 40.2652 40.8946 40.5196 40.7071 40.7071C40.5196 40.8946 40.2652 41 40 41H24C23.7348 41 23.4804 40.8946 23.2929 40.7071C23.1054 40.5196 23 40.2652 23 40V24C23 23.7348 23.1054 23.4804 23.2929 23.2929C23.4804 23.1054 23.7348 23 24 23ZM25 25V39H39V25H25Z" fill="#BFC4C8"/>
</g>
<rect x="0.5" y="0.5" width="94" height="63" rx="4.5" stroke="#9747FF" stroke-dasharray="10 5"/>
<defs>
<clipPath id="clip0_53_2346">
<rect width="24" height="24" fill="white" transform="translate(51 20)"/>
</clipPath>
<clipPath id="clip1_53_2346">
<rect width="24" height="24" fill="white" transform="translate(20 20)"/>
</clipPath>
</defs>
</svg>
