<svg width="94" height="64" viewBox="0 0 94 64" fill="none" xmlns="http://www.w3.org/2000/svg">
<g clip-path="url(#clip0_23_1037)">
<path d="M32 42C26.477 42 22 37.523 22 32C22 26.477 26.477 22 32 22C37.523 22 42 26.477 42 32C42 37.523 37.523 42 32 42ZM32 40C34.1217 40 36.1566 39.1571 37.6569 37.6569C39.1571 36.1566 40 34.1217 40 32C40 29.8783 39.1571 27.8434 37.6569 26.3431C36.1566 24.8429 34.1217 24 32 24C29.8783 24 27.8434 24.8429 26.3431 26.3431C24.8429 27.8434 24 29.8783 24 32C24 34.1217 24.8429 36.1566 26.3431 37.6569C27.8434 39.1571 29.8783 40 32 40ZM32 37C30.6739 37 29.4021 36.4732 28.4645 35.5355C27.5268 34.5979 27 33.3261 27 32C27 30.6739 27.5268 29.4021 28.4645 28.4645C29.4021 27.5268 30.6739 27 32 27C33.3261 27 34.5979 27.5268 35.5355 28.4645C36.4732 29.4021 37 30.6739 37 32C37 33.3261 36.4732 34.5979 35.5355 35.5355C34.5979 36.4732 33.3261 37 32 37Z" fill="#8B3DFF"/>
</g>
<g clip-path="url(#clip1_23_1037)">
<path d="M62 22C56.48 22 52 26.48 52 32C52 37.52 56.48 42 62 42C67.52 42 72 37.52 72 32C72 26.48 67.52 22 62 22ZM62 40C57.58 40 54 36.42 54 32C54 27.58 57.58 24 62 24C66.42 24 70 27.58 70 32C70 36.42 66.42 40 62 40Z" fill="#959596"/>
</g>
<rect x="0.5" y="0.5" width="93" height="63" rx="4.5" stroke="#9747FF" stroke-dasharray="10 5"/>
<defs>
<clipPath id="clip0_23_1037">
<rect width="24" height="24" fill="white" transform="translate(20 20)"/>
</clipPath>
<clipPath id="clip1_23_1037">
<rect width="24" height="24" fill="white" transform="translate(50 20)"/>
</clipPath>
</defs>
</svg>
