<svg width="98" height="64" viewBox="0 0 98 64" fill="none" xmlns="http://www.w3.org/2000/svg">
<path d="M42 30.94C41.9896 30.8481 41.9695 30.7576 41.94 30.67V30.58C41.8919 30.4772 41.8278 30.3827 41.75 30.3L35.75 24.3C35.6673 24.2222 35.5728 24.1581 35.47 24.11H35.37C35.2728 24.058 35.1683 24.0209 35.06 24H25C24.2044 24 23.4413 24.3161 22.8787 24.8787C22.3161 25.4413 22 26.2044 22 27V37C22 37.7956 22.3161 38.5587 22.8787 39.1213C23.4413 39.6839 24.2044 40 25 40H39C39.7956 40 40.5587 39.6839 41.1213 39.1213C41.6839 38.5587 42 37.7956 42 37V31C42 31 42 31 42 30.94ZM36 27.41L38.59 30H37C36.7348 30 36.4804 29.8946 36.2929 29.7071C36.1054 29.5196 36 29.2652 36 29V27.41ZM40 37C40 37.2652 39.8946 37.5196 39.7071 37.7071C39.5196 37.8946 39.2652 38 39 38H25C24.7348 38 24.4804 37.8946 24.2929 37.7071C24.1054 37.5196 24 37.2652 24 37V27C24 26.7348 24.1054 26.4804 24.2929 26.2929C24.4804 26.1054 24.7348 26 25 26H34V29C34 29.7956 34.3161 30.5587 34.8787 31.1213C35.4413 31.6839 36.2044 32 37 32H40V37Z" fill="#959596"/>
<path d="M76 30.94C75.9896 30.8481 75.9695 30.7576 75.94 30.67V30.58C75.8919 30.4772 75.8278 30.3827 75.75 30.3L69.75 24.3C69.6673 24.2222 69.5728 24.1581 69.47 24.11H69.37C69.2728 24.058 69.1683 24.0209 69.06 24H59C58.2044 24 57.4413 24.3161 56.8787 24.8787C56.3161 25.4413 56 26.2044 56 27V37C56 37.7956 56.3161 38.5587 56.8787 39.1213C57.4413 39.6839 58.2044 40 59 40H73C73.7956 40 74.5587 39.6839 75.1213 39.1213C75.6839 38.5587 76 37.7956 76 37V31C76 31 76 31 76 30.94ZM70 27.41L72.59 30H71C70.7348 30 70.4804 29.8946 70.2929 29.7071C70.1054 29.5196 70 29.2652 70 29V27.41ZM74 37C74 37.2652 73.8946 37.5196 73.7071 37.7071C73.5196 37.8946 73.2652 38 73 38H59C58.7348 38 58.4804 37.8946 58.2929 37.7071C58.1054 37.5196 58 37.2652 58 37V27C58 26.7348 58.1054 26.4804 58.2929 26.2929C58.4804 26.1054 58.7348 26 59 26H68V29C68 29.7956 68.3161 30.5587 68.8787 31.1213C69.4413 31.6839 70.2044 32 71 32H74V37Z" fill="white"/>
<rect x="0.5" y="0.5" width="97" height="63" rx="4.5" stroke="#9747FF" stroke-dasharray="10 5"/>
</svg>
