<svg width="70" height="71" viewBox="0 0 70 71" fill="none" xmlns="http://www.w3.org/2000/svg">
<rect x="0.5" y="0.5" width="69" height="70" rx="6.5" fill="#343536" stroke="#BFC4C8"/>
<path d="M42 28.5H35.72L35.4 27.5C35.1926 26.9132 34.8077 26.4055 34.2989 26.0472C33.7901 25.6888 33.1824 25.4976 32.56 25.5H28C27.2044 25.5 26.4413 25.8161 25.8787 26.3787C25.3161 26.9413 25 27.7043 25 28.5V41.5C25 42.2956 25.3161 43.0587 25.8787 43.6213C26.4413 44.1839 27.2044 44.5 28 44.5H42C42.7956 44.5 43.5587 44.1839 44.1213 43.6213C44.6839 43.0587 45 42.2956 45 41.5V31.5C45 30.7043 44.6839 29.9413 44.1213 29.3787C43.5587 28.8161 42.7956 28.5 42 28.5ZM43 41.5C43 41.7652 42.8946 42.0196 42.7071 42.2071C42.5196 42.3946 42.2652 42.5 42 42.5H28C27.7348 42.5 27.4804 42.3946 27.2929 42.2071C27.1054 42.0196 27 41.7652 27 41.5V28.5C27 28.2348 27.1054 27.9804 27.2929 27.7929C27.4804 27.6054 27.7348 27.5 28 27.5H32.56C32.7696 27.4995 32.9742 27.5648 33.1446 27.6868C33.3151 27.8089 33.4429 27.9814 33.51 28.18L34.05 29.82C34.1171 30.0186 34.2449 30.1911 34.4154 30.3132C34.5858 30.4352 34.7904 30.5005 35 30.5H42C42.2652 30.5 42.5196 30.6054 42.7071 30.7929C42.8946 30.9804 43 31.2348 43 31.5V41.5Z" fill="white"/>
</svg>
