<svg width="24" height="24" viewBox="0 0 24 24" fill="none" xmlns="http://www.w3.org/2000/svg">
<path d="M2.5 8.86L11.5 14.06C11.652 14.1478 11.8245 14.194 12 14.194C12.1755 14.194 12.348 14.1478 12.5 14.06L21.5 8.86C21.6511 8.77275 21.7768 8.64746 21.8645 8.49659C21.9522 8.34572 21.9989 8.17452 22 8C22.0007 7.82379 21.9548 7.65053 21.867 7.49775C21.7792 7.34497 21.6526 7.21811 21.5 7.13L12.5 1.94C12.348 1.85224 12.1755 1.80603 12 1.80603C11.8245 1.80603 11.652 1.85224 11.5 1.94L2.5 7.13C2.3474 7.21811 2.22078 7.34497 2.13298 7.49775C2.04517 7.65053 1.9993 7.82379 2 8C2.00105 8.17452 2.04776 8.34572 2.13547 8.49659C2.22319 8.64746 2.34886 8.77275 2.5 8.86ZM12 4L19 8L12 12L5 8L12 4ZM20.5 11.17L12 16L3.5 11.13C3.38587 11.0639 3.25978 11.021 3.129 11.0038C2.99822 10.9866 2.86534 10.9955 2.738 11.0299C2.61066 11.0643 2.49138 11.1235 2.38703 11.2042C2.28268 11.2849 2.19533 11.3854 2.13 11.5C1.99963 11.7296 1.96536 12.0015 2.03468 12.2563C2.104 12.5111 2.27127 12.7281 2.5 12.86L11.5 18.06C11.652 18.1478 11.8245 18.194 12 18.194C12.1755 18.194 12.348 18.1478 12.5 18.06L21.5 12.86C21.7287 12.7281 21.896 12.5111 21.9653 12.2563C22.0346 12.0015 22.0004 11.7296 21.87 11.5C21.8047 11.3854 21.7173 11.2849 21.613 11.2042C21.5086 11.1235 21.3893 11.0643 21.262 11.0299C21.1347 10.9955 21.0018 10.9866 20.871 11.0038C20.7402 11.021 20.6141 11.0639 20.5 11.13V11.17ZM20.5 15.17L12 20L3.5 15.13C3.38587 15.0639 3.25978 15.021 3.129 15.0038C2.99822 14.9866 2.86534 14.9955 2.738 15.0299C2.61066 15.0643 2.49138 15.1235 2.38703 15.2042C2.28268 15.2849 2.19533 15.3854 2.13 15.5C1.99963 15.7296 1.96536 16.0015 2.03468 16.2563C2.104 16.5111 2.27127 16.7281 2.5 16.86L11.5 22.06C11.652 22.1478 11.8245 22.194 12 22.194C12.1755 22.194 12.348 22.1478 12.5 22.06L21.5 16.86C21.7287 16.7281 21.896 16.5111 21.9653 16.2563C22.0346 16.0015 22.0004 15.7296 21.87 15.5C21.8047 15.3854 21.7173 15.2849 21.613 15.2042C21.5086 15.1235 21.3893 15.0643 21.262 15.0299C21.1347 14.9955 21.0018 14.9866 20.871 15.0038C20.7402 15.021 20.6141 15.0639 20.5 15.13V15.17Z" fill="white"/>
</svg>
