<svg width="34" height="34" viewBox="0 0 34 34" fill="none" xmlns="http://www.w3.org/2000/svg">
<rect x="0.5" y="0.5" width="33" height="33" rx="2.5" fill="white" stroke="#BFC4C8"/>
<path d="M17 25C17.5523 25 18 24.5523 18 24C18 23.4477 17.5523 23 17 23C16.4477 23 16 23.4477 16 24C16 24.5523 16.4477 25 17 25Z" stroke="#959596" stroke-width="2" stroke-linecap="round" stroke-linejoin="round"/>
<path d="M17 18C17.5523 18 18 17.5523 18 17C18 16.4477 17.5523 16 17 16C16.4477 16 16 16.4477 16 17C16 17.5523 16.4477 18 17 18Z" stroke="#959596" stroke-width="2" stroke-linecap="round" stroke-linejoin="round"/>
<path d="M17 11C17.5523 11 18 10.5523 18 10C18 9.44772 17.5523 9 17 9C16.4477 9 16 9.44772 16 10C16 10.5523 16.4477 11 17 11Z" stroke="#959596" stroke-width="2" stroke-linecap="round" stroke-linejoin="round"/>
</svg>
