<svg width="44" height="44" viewBox="0 0 44 44" fill="none" xmlns="http://www.w3.org/2000/svg">
<path d="M28 18C28 16.4087 27.3679 14.8826 26.2426 13.7574C25.1174 12.6321 23.5913 12 22 12C20.4087 12 18.8826 12.6321 17.7574 13.7574C16.6321 14.8826 16 16.4087 16 18C16 25 13 27 13 27H31C31 27 28 25 28 18Z" stroke="#959596" stroke-width="2" stroke-linecap="round" stroke-linejoin="round"/>
<path d="M23.73 31C23.5542 31.3031 23.3018 31.5547 22.9982 31.7295C22.6946 31.9044 22.3504 31.9965 22 31.9965C21.6496 31.9965 21.3054 31.9044 21.0018 31.7295C20.6982 31.5547 20.4458 31.3031 20.27 31" stroke="#959596" stroke-width="2" stroke-linecap="round" stroke-linejoin="round"/>
<circle cx="27" cy="14" r="6" fill="#EC3A3A"/>
<path d="M26.8763 17.126C26.5553 17.126 26.2568 17.0675 25.9808 16.9505C25.7048 16.8305 25.4663 16.6625 25.2653 16.4465C25.0673 16.2275 24.9218 15.968 24.8288 15.668L25.5983 15.4475C25.6973 15.7475 25.8623 15.9755 26.0933 16.1315C26.3243 16.2875 26.5838 16.364 26.8718 16.361C27.1358 16.355 27.3638 16.295 27.5558 16.181C27.7508 16.064 27.9008 15.905 28.0058 15.704C28.1138 15.503 28.1678 15.2705 28.1678 15.0065C28.1678 14.6045 28.0478 14.279 27.8078 14.03C27.5678 13.778 27.2528 13.652 26.8628 13.652C26.7548 13.652 26.6408 13.667 26.5208 13.697C26.4038 13.727 26.2943 13.769 26.1923 13.823L25.8053 13.1885L28.2083 11.015L28.3118 11.285H25.0853V10.52H28.9058V11.2895L26.8583 13.2515L26.8493 12.968C27.2783 12.938 27.6533 13.0085 27.9743 13.1795C28.2953 13.3505 28.5443 13.595 28.7213 13.913C28.9013 14.231 28.9912 14.5955 28.9912 15.0065C28.9912 15.4205 28.8983 15.7865 28.7123 16.1045C28.5263 16.4225 28.2743 16.673 27.9563 16.856C27.6383 17.036 27.2783 17.126 26.8763 17.126Z" fill="white"/>
</svg>
