<svg width="98" height="64" viewBox="0 0 98 64" fill="none" xmlns="http://www.w3.org/2000/svg">
<path d="M42 27.82C42.0048 27.7568 42.0048 27.6932 42 27.63L40 22.63C39.9219 22.4324 39.7828 22.2647 39.603 22.1515C39.4232 22.0382 39.212 21.9851 39 22H25C24.7997 21.9998 24.604 22.0598 24.4382 22.1721C24.2724 22.2844 24.1441 22.4439 24.07 22.63L22.07 27.63C22.0652 27.6932 22.0652 27.7568 22.07 27.82C22.0368 27.8757 22.0131 27.9365 22 28C22.0111 28.6912 22.2012 29.3678 22.5517 29.9637C22.9023 30.5596 23.4012 31.0544 24 31.4V41C24 41.2652 24.1054 41.5196 24.2929 41.7071C24.4804 41.8946 24.7348 42 25 42H39C39.2652 42 39.5196 41.8946 39.7071 41.7071C39.8946 41.5196 40 41.2652 40 41V31.44C40.6046 31.091 41.1072 30.5898 41.4581 29.9863C41.809 29.3829 41.9958 28.6981 42 28C42.0094 27.9404 42.0094 27.8796 42 27.82ZM33 40H31V36H33V40ZM38 40H35V35C35 34.7348 34.8946 34.4804 34.7071 34.2929C34.5196 34.1054 34.2652 34 34 34H30C29.7348 34 29.4804 34.1054 29.2929 34.2929C29.1054 34.4804 29 34.7348 29 35V40H26V32C26.5695 31.9968 27.1317 31.872 27.6491 31.634C28.1664 31.396 28.627 31.0503 29 30.62C29.3754 31.0456 29.837 31.3865 30.3542 31.62C30.8715 31.8535 31.4325 31.9742 32 31.9742C32.5675 31.9742 33.1285 31.8535 33.6458 31.62C34.163 31.3865 34.6246 31.0456 35 30.62C35.373 31.0503 35.8336 31.396 36.3509 31.634C36.8683 31.872 37.4305 31.9968 38 32V40ZM38 30C37.4696 30 36.9609 29.7893 36.5858 29.4142C36.2107 29.0391 36 28.5304 36 28C36 27.7348 35.8946 27.4804 35.7071 27.2929C35.5196 27.1054 35.2652 27 35 27C34.7348 27 34.4804 27.1054 34.2929 27.2929C34.1054 27.4804 34 27.7348 34 28C34 28.5304 33.7893 29.0391 33.4142 29.4142C33.0391 29.7893 32.5304 30 32 30C31.4696 30 30.9609 29.7893 30.5858 29.4142C30.2107 29.0391 30 28.5304 30 28C30 27.7348 29.8946 27.4804 29.7071 27.2929C29.5196 27.1054 29.2652 27 29 27C28.7348 27 28.4804 27.1054 28.2929 27.2929C28.1054 27.4804 28 27.7348 28 28C28.0098 28.2626 27.9679 28.5247 27.8765 28.7711C27.7851 29.0175 27.646 29.2435 27.4672 29.4362C27.2885 29.6289 27.0735 29.7844 26.8347 29.8941C26.5958 30.0037 26.3376 30.0651 26.075 30.075C25.5446 30.0949 25.028 29.9033 24.6388 29.5422C24.4461 29.3635 24.2906 29.1485 24.1809 28.9097C24.0713 28.6708 24.0098 28.4126 24 28.15L25.68 24H38.32L40 28.15C39.9621 28.654 39.7348 29.125 39.3637 29.4682C38.9927 29.8114 38.5054 30.0014 38 30Z" fill="#959596"/>
<path d="M76 27.82C76.0048 27.7568 76.0048 27.6932 76 27.63L74 22.63C73.9219 22.4324 73.7828 22.2647 73.603 22.1515C73.4232 22.0382 73.212 21.9851 73 22H59C58.7997 21.9998 58.604 22.0598 58.4382 22.1721C58.2724 22.2844 58.1441 22.4439 58.07 22.63L56.07 27.63C56.0652 27.6932 56.0652 27.7568 56.07 27.82C56.0368 27.8757 56.0131 27.9365 56 28C56.0111 28.6912 56.2012 29.3678 56.5517 29.9637C56.9023 30.5596 57.4012 31.0544 58 31.4V41C58 41.2652 58.1054 41.5196 58.2929 41.7071C58.4804 41.8946 58.7348 42 59 42H73C73.2652 42 73.5196 41.8946 73.7071 41.7071C73.8946 41.5196 74 41.2652 74 41V31.44C74.6046 31.091 75.1072 30.5898 75.4581 29.9863C75.809 29.3829 75.9958 28.6981 76 28C76.0094 27.9404 76.0094 27.8796 76 27.82ZM67 40H65V36H67V40ZM72 40H69V35C69 34.7348 68.8946 34.4804 68.7071 34.2929C68.5196 34.1054 68.2652 34 68 34H64C63.7348 34 63.4804 34.1054 63.2929 34.2929C63.1054 34.4804 63 34.7348 63 35V40H60V32C60.5695 31.9968 61.1317 31.872 61.6491 31.634C62.1664 31.396 62.627 31.0503 63 30.62C63.3754 31.0456 63.837 31.3865 64.3542 31.62C64.8715 31.8535 65.4325 31.9742 66 31.9742C66.5675 31.9742 67.1285 31.8535 67.6458 31.62C68.163 31.3865 68.6246 31.0456 69 30.62C69.373 31.0503 69.8336 31.396 70.3509 31.634C70.8683 31.872 71.4305 31.9968 72 32V40ZM72 30C71.4696 30 70.9609 29.7893 70.5858 29.4142C70.2107 29.0391 70 28.5304 70 28C70 27.7348 69.8946 27.4804 69.7071 27.2929C69.5196 27.1054 69.2652 27 69 27C68.7348 27 68.4804 27.1054 68.2929 27.2929C68.1054 27.4804 68 27.7348 68 28C68 28.5304 67.7893 29.0391 67.4142 29.4142C67.0391 29.7893 66.5304 30 66 30C65.4696 30 64.9609 29.7893 64.5858 29.4142C64.2107 29.0391 64 28.5304 64 28C64 27.7348 63.8946 27.4804 63.7071 27.2929C63.5196 27.1054 63.2652 27 63 27C62.7348 27 62.4804 27.1054 62.2929 27.2929C62.1054 27.4804 62 27.7348 62 28C62.0098 28.2626 61.9679 28.5247 61.8765 28.7711C61.7851 29.0175 61.646 29.2435 61.4672 29.4362C61.2885 29.6289 61.0735 29.7844 60.8347 29.8941C60.5958 30.0037 60.3376 30.0651 60.075 30.075C59.5446 30.0949 59.028 29.9033 58.6388 29.5422C58.4461 29.3635 58.2906 29.1485 58.1809 28.9097C58.0713 28.6708 58.0098 28.4126 58 28.15L59.68 24H72.32L74 28.15C73.9621 28.654 73.7348 29.125 73.3637 29.4682C72.9927 29.8114 72.5054 30.0014 72 30Z" fill="white"/>
<rect x="0.5" y="0.5" width="97" height="63" rx="4.5" stroke="#9747FF" stroke-dasharray="10 5"/>
</svg>
