<svg width="24" height="24" viewBox="0 0 24 24" fill="none" xmlns="http://www.w3.org/2000/svg">
<path d="M14 18.175V12C14 11.7167 14.0958 11.4792 14.2875 11.2875C14.4792 11.0958 14.7167 11 15 11C15.2833 11 15.5208 11.0958 15.7125 11.2875C15.9042 11.4792 16 11.7167 16 12V18.175L17.875 16.3C18.0583 16.1167 18.2875 16.0208 18.5625 16.0125C18.8375 16.0042 19.075 16.1 19.275 16.3C19.475 16.4833 19.5792 16.7125 19.5875 16.9875C19.5958 17.2625 19.5 17.5 19.3 17.7L15.7 21.3C15.6 21.4 15.4917 21.4708 15.375 21.5125C15.2583 21.5542 15.1333 21.575 15 21.575C14.8667 21.575 14.7417 21.5542 14.625 21.5125C14.5083 21.4708 14.4 21.4 14.3 21.3L10.7 17.7C10.5167 17.5167 10.425 17.2875 10.425 17.0125C10.425 16.7375 10.525 16.5 10.725 16.3C10.925 16.1167 11.1583 16.0208 11.425 16.0125C11.6917 16.0042 11.925 16.1 12.125 16.3L14 18.175ZM8 5.825L6.125 7.7C5.90834 7.91667 5.66667 8.01667 5.4 8C5.13334 7.98334 4.90834 7.88334 4.725 7.7C4.525 7.5 4.425 7.2625 4.425 6.9875C4.425 6.7125 4.51667 6.48334 4.7 6.3L8.3 2.7C8.4 2.6 8.50834 2.52917 8.625 2.4875C8.74167 2.44584 8.86667 2.425 9 2.425C9.13334 2.425 9.25834 2.44584 9.375 2.4875C9.49167 2.52917 9.6 2.6 9.7 2.7L13.3 6.3C13.4833 6.48334 13.575 6.71667 13.575 7C13.575 7.28334 13.4833 7.51667 13.3 7.7C13.1 7.9 12.8625 8 12.5875 8C12.3125 8 12.075 7.9 11.875 7.7L10 5.825V12C10 12.2833 9.90417 12.5208 9.7125 12.7125C9.52084 12.9042 9.28334 13 9 13C8.71667 13 8.47917 12.9042 8.2875 12.7125C8.09584 12.5208 8 12.2833 8 12V5.825Z" fill="black"/>
</svg>
