<svg width="24" height="24" viewBox="0 0 24 24" fill="none" xmlns="http://www.w3.org/2000/svg">
<path d="M12 15.8909C11.7167 15.8909 11.4792 15.7924 11.2875 15.5955C11.0958 15.3986 11 15.1546 11 14.8636V7.51846L9.125 9.44462C8.925 9.65008 8.69167 9.75281 8.425 9.75281C8.15833 9.75281 7.91667 9.64152 7.7 9.41894C7.5 9.21348 7.40417 8.9695 7.4125 8.687C7.42083 8.40449 7.51667 8.16907 7.7 7.98074L11.3 4.2825C11.4 4.17978 11.5083 4.10701 11.625 4.06421C11.7417 4.0214 11.8667 4 12 4C12.1333 4 12.2583 4.0214 12.375 4.06421C12.4917 4.10701 12.6 4.17978 12.7 4.2825L16.3 7.98074C16.5 8.1862 16.5958 8.43018 16.5875 8.71268C16.5792 8.99518 16.4833 9.2306 16.3 9.41894C16.1 9.6244 15.8625 9.73141 15.5875 9.73997C15.3125 9.74853 15.075 9.65008 14.875 9.44462L13 7.51846V14.8636C13 15.1546 12.9042 15.3986 12.7125 15.5955C12.5208 15.7924 12.2833 15.8909 12 15.8909ZM6 20C5.45 20 4.97917 19.7988 4.5875 19.3965C4.19583 18.9941 4 18.5104 4 17.9454V15.8909C4 15.5998 4.09583 15.3558 4.2875 15.1589C4.47917 14.962 4.71667 14.8636 5 14.8636C5.28333 14.8636 5.52083 14.962 5.7125 15.1589C5.90417 15.3558 6 15.5998 6 15.8909V17.9454H18V15.8909C18 15.5998 18.0958 15.3558 18.2875 15.1589C18.4792 14.962 18.7167 14.8636 19 14.8636C19.2833 14.8636 19.5208 14.962 19.7125 15.1589C19.9042 15.3558 20 15.5998 20 15.8909V17.9454C20 18.5104 19.8042 18.9941 19.4125 19.3965C19.0208 19.7988 18.55 20 18 20H6Z" fill="black"/>
</svg>
