<svg width="98" height="64" viewBox="0 0 98 64" fill="none" xmlns="http://www.w3.org/2000/svg">
<path d="M32.3 32.22C32.8336 31.7581 33.2616 31.1869 33.5549 30.545C33.8482 29.9032 34 29.2057 34 28.5C34 27.1739 33.4732 25.9021 32.5355 24.9645C31.5979 24.0268 30.3261 23.5 29 23.5C27.6739 23.5 26.4021 24.0268 25.4645 24.9645C24.5268 25.9021 24 27.1739 24 28.5C24 29.2057 24.1518 29.9032 24.4451 30.545C24.7384 31.1869 25.1664 31.7581 25.7 32.22C24.3001 32.8539 23.1125 33.8775 22.279 35.1685C21.4455 36.4596 21.0015 37.9633 21 39.5C21 39.7652 21.1054 40.0196 21.2929 40.2071C21.4804 40.3946 21.7348 40.5 22 40.5C22.2652 40.5 22.5196 40.3946 22.7071 40.2071C22.8946 40.0196 23 39.7652 23 39.5C23 37.9087 23.6321 36.3826 24.7574 35.2574C25.8826 34.1321 27.4087 33.5 29 33.5C30.5913 33.5 32.1174 34.1321 33.2426 35.2574C34.3679 36.3826 35 37.9087 35 39.5C35 39.7652 35.1054 40.0196 35.2929 40.2071C35.4804 40.3946 35.7348 40.5 36 40.5C36.2652 40.5 36.5196 40.3946 36.7071 40.2071C36.8946 40.0196 37 39.7652 37 39.5C36.9985 37.9633 36.5545 36.4596 35.721 35.1685C34.8875 33.8775 33.6999 32.8539 32.3 32.22ZM29 31.5C28.4067 31.5 27.8266 31.3241 27.3333 30.9944C26.8399 30.6648 26.4554 30.1962 26.2284 29.6481C26.0013 29.0999 25.9419 28.4967 26.0576 27.9147C26.1734 27.3328 26.4591 26.7982 26.8787 26.3787C27.2982 25.9591 27.8328 25.6734 28.4147 25.5576C28.9967 25.4419 29.5999 25.5013 30.1481 25.7284C30.6962 25.9554 31.1648 26.3399 31.4944 26.8333C31.8241 27.3266 32 27.9067 32 28.5C32 29.2956 31.6839 30.0587 31.1213 30.6213C30.5587 31.1839 29.7956 31.5 29 31.5ZM38.74 31.82C39.38 31.0993 39.798 30.2091 39.9438 29.2563C40.0896 28.3036 39.9569 27.3291 39.5618 26.45C39.1666 25.5709 38.5258 24.8248 37.7165 24.3014C36.9071 23.7781 35.9638 23.4997 35 23.5C34.7348 23.5 34.4804 23.6054 34.2929 23.7929C34.1054 23.9804 34 24.2348 34 24.5C34 24.7652 34.1054 25.0196 34.2929 25.2071C34.4804 25.3946 34.7348 25.5 35 25.5C35.7956 25.5 36.5587 25.8161 37.1213 26.3787C37.6839 26.9413 38 27.7044 38 28.5C37.9986 29.0252 37.8593 29.5409 37.5961 29.9954C37.3328 30.4499 36.9549 30.8274 36.5 31.09C36.3517 31.1755 36.2279 31.2977 36.1404 31.4447C36.0528 31.5918 36.0045 31.7589 36 31.93C35.9958 32.0998 36.0349 32.2678 36.1137 32.4183C36.1924 32.5687 36.3081 32.6967 36.45 32.79L36.84 33.05L36.97 33.12C38.1754 33.6917 39.1923 34.596 39.901 35.7263C40.6096 36.8566 40.9805 38.1659 40.97 39.5C40.97 39.7652 41.0754 40.0196 41.2629 40.2071C41.4504 40.3946 41.7048 40.5 41.97 40.5C42.2352 40.5 42.4896 40.3946 42.6771 40.2071C42.8646 40.0196 42.97 39.7652 42.97 39.5C42.9782 37.9654 42.5938 36.4543 41.8535 35.1101C41.1131 33.7659 40.0413 32.6333 38.74 31.82Z" fill="#959596"/>
<path d="M66.3 32.22C66.8336 31.7581 67.2616 31.1869 67.5549 30.545C67.8482 29.9032 68 29.2057 68 28.5C68 27.1739 67.4732 25.9021 66.5355 24.9645C65.5979 24.0268 64.3261 23.5 63 23.5C61.6739 23.5 60.4021 24.0268 59.4645 24.9645C58.5268 25.9021 58 27.1739 58 28.5C58 29.2057 58.1518 29.9032 58.4451 30.545C58.7384 31.1869 59.1664 31.7581 59.7 32.22C58.3001 32.8539 57.1125 33.8775 56.279 35.1685C55.4455 36.4596 55.0015 37.9633 55 39.5C55 39.7652 55.1054 40.0196 55.2929 40.2071C55.4804 40.3946 55.7348 40.5 56 40.5C56.2652 40.5 56.5196 40.3946 56.7071 40.2071C56.8946 40.0196 57 39.7652 57 39.5C57 37.9087 57.6321 36.3826 58.7574 35.2574C59.8826 34.1321 61.4087 33.5 63 33.5C64.5913 33.5 66.1174 34.1321 67.2426 35.2574C68.3679 36.3826 69 37.9087 69 39.5C69 39.7652 69.1054 40.0196 69.2929 40.2071C69.4804 40.3946 69.7348 40.5 70 40.5C70.2652 40.5 70.5196 40.3946 70.7071 40.2071C70.8946 40.0196 71 39.7652 71 39.5C70.9985 37.9633 70.5545 36.4596 69.721 35.1685C68.8875 33.8775 67.6999 32.8539 66.3 32.22ZM63 31.5C62.4067 31.5 61.8266 31.3241 61.3333 30.9944C60.8399 30.6648 60.4554 30.1962 60.2284 29.6481C60.0013 29.0999 59.9419 28.4967 60.0576 27.9147C60.1734 27.3328 60.4591 26.7982 60.8787 26.3787C61.2982 25.9591 61.8328 25.6734 62.4147 25.5576C62.9967 25.4419 63.5999 25.5013 64.1481 25.7284C64.6962 25.9554 65.1648 26.3399 65.4944 26.8333C65.8241 27.3266 66 27.9067 66 28.5C66 29.2956 65.6839 30.0587 65.1213 30.6213C64.5587 31.1839 63.7956 31.5 63 31.5ZM72.74 31.82C73.38 31.0993 73.798 30.2091 73.9438 29.2563C74.0896 28.3036 73.9569 27.3291 73.5618 26.45C73.1666 25.5709 72.5258 24.8248 71.7165 24.3014C70.9071 23.7781 69.9638 23.4997 69 23.5C68.7348 23.5 68.4804 23.6054 68.2929 23.7929C68.1054 23.9804 68 24.2348 68 24.5C68 24.7652 68.1054 25.0196 68.2929 25.2071C68.4804 25.3946 68.7348 25.5 69 25.5C69.7956 25.5 70.5587 25.8161 71.1213 26.3787C71.6839 26.9413 72 27.7044 72 28.5C71.9986 29.0252 71.8593 29.5409 71.5961 29.9954C71.3328 30.4499 70.9549 30.8274 70.5 31.09C70.3517 31.1755 70.2279 31.2977 70.1404 31.4447C70.0528 31.5918 70.0045 31.7589 70 31.93C69.9958 32.0998 70.0349 32.2678 70.1137 32.4183C70.1924 32.5687 70.3081 32.6967 70.45 32.79L70.84 33.05L70.97 33.12C72.1754 33.6917 73.1923 34.596 73.901 35.7263C74.6096 36.8566 74.9805 38.1659 74.97 39.5C74.97 39.7652 75.0754 40.0196 75.2629 40.2071C75.4504 40.3946 75.7048 40.5 75.97 40.5C76.2352 40.5 76.4896 40.3946 76.6771 40.2071C76.8646 40.0196 76.97 39.7652 76.97 39.5C76.9782 37.9654 76.5938 36.4543 75.8535 35.1101C75.1131 33.7659 74.0413 32.6333 72.74 31.82Z" fill="white"/>
<rect x="0.5" y="0.5" width="97" height="63" rx="4.5" stroke="#9747FF" stroke-dasharray="10 5"/>
</svg>
