<svg width="28" height="28" viewBox="0 0 28 28" fill="none" xmlns="http://www.w3.org/2000/svg">
<circle cx="14" cy="14" r="13.5" fill="#F8FAFB" stroke="#343536"/>
<path d="M14 14.5C12.9 14.5 12 14.15 11.3 13.45C10.6 12.75 10.25 11.85 10.25 10.75C10.25 9.65 10.6 8.75 11.3 8.05C12 7.35 12.9 7 14 7C15.1 7 16 7.35 16.7 8.05C17.4 8.75 17.75 9.65 17.75 10.75C17.75 11.85 17.4 12.75 16.7 13.45C16 14.15 15.1 14.5 14 14.5ZM20.5 22.525H7.5C7.08333 22.525 6.72917 22.3792 6.4375 22.0875C6.14583 21.7958 6 21.4417 6 21.025V20.175C6 19.5417 6.15833 19 6.475 18.55C6.79167 18.1 7.2 17.7583 7.7 17.525C8.81667 17.025 9.8875 16.65 10.9125 16.4C11.9375 16.15 12.9667 16.025 14 16.025C15.0333 16.025 16.0583 16.1542 17.075 16.4125C18.0917 16.6708 19.1583 17.0417 20.275 17.525C20.7917 17.7583 21.2083 18.1 21.525 18.55C21.8417 19 22 19.5417 22 20.175V21.025C22 21.4417 21.8542 21.7958 21.5625 22.0875C21.2708 22.3792 20.9167 22.525 20.5 22.525ZM7.5 21.025H20.5V20.175C20.5 19.9083 20.4208 19.6542 20.2625 19.4125C20.1042 19.1708 19.9083 18.9917 19.675 18.875C18.6083 18.3583 17.6333 18.0042 16.75 17.8125C15.8667 17.6208 14.95 17.525 14 17.525C13.05 17.525 12.125 17.6208 11.225 17.8125C10.325 18.0042 9.35 18.3583 8.3 18.875C8.06667 18.9917 7.875 19.1708 7.725 19.4125C7.575 19.6542 7.5 19.9083 7.5 20.175V21.025ZM14 13C14.65 13 15.1875 12.7875 15.6125 12.3625C16.0375 11.9375 16.25 11.4 16.25 10.75C16.25 10.1 16.0375 9.5625 15.6125 9.1375C15.1875 8.7125 14.65 8.5 14 8.5C13.35 8.5 12.8125 8.7125 12.3875 9.1375C11.9625 9.5625 11.75 10.1 11.75 10.75C11.75 11.4 11.9625 11.9375 12.3875 12.3625C12.8125 12.7875 13.35 13 14 13Z" fill="#343536"/>
</svg>
